# xmcd
#
# Track frame offsets:
#	150
#	16261
#	31672
#	48385
#	64737
#	80462
#	98183
#	117487
#	134975
#	154477
#	171932
#	186672
#	203801
#	218042
#	234510
#	248676
#	266380
#	282755
#
# Disc length: 3983 seconds
# Revision: 1
# Processed by: cddbd v1.5.2PL0 Copyright (c) Steve Scherf et al.
# Submitted via: dBpowerAMP V12.0
#
DISCID=060f8d12
DTITLE=Various Artist - Country Radio October 2004
DYEAR=2004
DGENRE=Country
TTITLE0=Toby Keith - Stays In Mexico
TTITLE1=Shania Twain With Billy Currington - Party For Two
TTITLE2=Dierks Bentley - How Am I Doin
TTITLE3=Reba McEntire - He Gets That Form Me
TTITLE4=Restlesss Heart - Feel My Way To You
TTITLE5=Kenny Chesney - The Woman With You
TTITLE6=Paul Brandt - Convoy
TTITLE7=Trent Williams - Dixie Rose Delue's Honky Tonk Feed Store Gun Shop Used Car Beer Bait BBQ Barber Shop Laundromat
TTITLE8=Emerson Drive - November
TTITLE9=Joe Diffie - If I Could Only Bring You Back
TTITLE10=George Canyon - I'll Never Do Better Than You (Canadian Version)
TTITLE11=Keith Urban - Days Go By
TTITLE12=Brad Cotter - Can't Tell Me Nothing
TTITLE13=Rachel Proctor - Where I Belong
TTITLE14=Trace Adkins - Rough and Ready
TTITLE15=Pat Green - Don't Break My Heart Again
TTITLE16=Johnny Reid - You Still Own Me
TTITLE17=Deric Ruttan - I Saved Everything
EXTD=
EXTT0=
EXTT1=
EXTT2=
EXTT3=
EXTT4=
EXTT5=
EXTT6=
EXTT7=
EXTT8=
EXTT9=
EXTT10=
EXTT11=
EXTT12=
EXTT13=
EXTT14=
EXTT15=
EXTT16=
EXTT17=
PLAYORDER=
